<?xml version="1.0" encoding="UTF-8" standalone="no"?>
<!DOCTYPE svg PUBLIC "-//W3C//DTD SVG 1.1//EN" "http://www.w3.org/Graphics/SVG/1.1/DTD/svg11.dtd">
<svg width="100%" height="100%" viewBox="0 0 128 128" version="1.1" xmlns="http://www.w3.org/2000/svg" xmlns:xlink="http://www.w3.org/1999/xlink" xml:space="preserve" xmlns:serif="http://www.serif.com/" style="fill-rule:evenodd;clip-rule:evenodd;stroke-linejoin:round;stroke-miterlimit:2;">
    <rect id="ArtBoard1" x="0" y="0" width="128" height="128" style="fill:none;"/>
    <clipPath id="_clip1">
        <rect id="ArtBoard11" serif:id="ArtBoard1" x="0" y="0" width="128" height="128"/>
    </clipPath>
    <g clip-path="url(#_clip1)">
        <rect x="0" y="0" width="128" height="128" style="fill:#444;"/>
        <circle cx="64" cy="64" r="36.316" style="fill:#f45;"/>
        <path d="M23.125,70.817l-4.925,-0l0,8.827l-17.157,-15.644l17.157,-15.644l0,9.466l4.824,0c-0.302,2.016 -0.458,4.079 -0.458,6.178c-0,2.322 0.191,4.599 0.559,6.817Zm34.271,-47.727l-0,-4.89l-9.04,0l15.644,-17.157l15.644,17.157l-9.254,0l0,4.856c-2.083,-0.323 -4.217,-0.49 -6.39,-0.49c-2.247,-0 -4.453,0.179 -6.604,0.524Zm47.58,34.732l4.824,0l-0,-9.466l17.157,15.644l-17.157,15.644l-0,-8.827l-4.925,-0c0.368,-2.218 0.559,-4.495 0.559,-6.817c0,-2.099 -0.156,-4.162 -0.458,-6.178Zm-34.586,47.122l0,4.856l9.254,-0l-15.644,17.157l-15.644,-17.157l9.04,-0l-0,-4.89c2.151,0.345 4.357,0.524 6.604,0.524c2.173,0 4.307,-0.167 6.39,-0.49Z" style="fill:#ebebeb;"/>
    </g>
</svg>
